<?xml version="1.0" encoding="utf-8"?>
<svg viewBox="44.56 170.08 298.764 202.681" width="298.764" height="202.681" xmlns="http://www.w3.org/2000/svg">
  <path d="M 44.56 170.08 L 343.324 170.08 L 343.324 372.761 L 44.56 372.761 L 44.56 170.08 Z" style="fill: rgb(45, 99, 169);"/>
  <path d="M 95.408 202.503 L 95.408 226.503 L 82.358 226.503 L 82.358 198.573 C 82.358 195.12 81.781 192.533 80.628 190.813 C 79.475 189.086 77.658 188.223 75.178 188.223 C 71.838 188.223 69.415 189.45 67.908 191.903 C 66.395 194.35 65.638 198.383 65.638 204.003 L 65.638 226.503 L 52.588 226.503 L 52.588 178.683 L 62.558 178.683 L 64.308 184.803 L 65.038 184.803 C 66.325 182.603 68.178 180.883 70.598 179.643 C 73.025 178.403 75.805 177.783 78.938 177.783 C 86.098 177.783 90.948 180.123 93.488 184.803 L 94.638 184.803 C 95.918 182.576 97.808 180.85 100.308 179.623 C 102.801 178.396 105.618 177.783 108.758 177.783 C 114.171 177.783 118.268 179.173 121.048 181.953 C 123.828 184.733 125.218 189.19 125.218 195.323 L 125.218 226.503 L 112.128 226.503 L 112.128 198.573 C 112.128 195.12 111.551 192.533 110.398 190.813 C 109.245 189.086 107.428 188.223 104.948 188.223 C 101.755 188.223 99.365 189.363 97.778 191.643 C 96.198 193.923 95.408 197.543 95.408 202.503 ZM 150.753 226.163 L 131.763 178.683 L 146.053 178.683 L 155.073 205.583 C 155.847 207.923 156.373 210.69 156.653 213.883 L 156.913 213.883 C 157.227 210.95 157.84 208.183 158.753 205.583 L 167.603 178.683 L 181.593 178.683 L 161.363 232.623 C 159.51 237.61 156.863 241.343 153.423 243.823 C 149.99 246.303 145.977 247.543 141.383 247.543 C 139.13 247.543 136.92 247.303 134.753 246.823 L 134.753 236.473 C 136.327 236.84 138.04 237.023 139.893 237.023 C 142.2 237.023 144.217 236.316 145.943 234.903 C 147.67 233.496 149.017 231.366 149.983 228.513 L 150.753 226.163 Z" style="fill: rgb(255, 255, 255); white-space: pre;"/>
  <path d="M 117.888 257.351 L 140.168 257.351 L 140.168 325.581 C 140.168 333.368 138.425 340.194 134.938 346.061 C 131.451 351.928 126.415 356.421 119.828 359.541 C 113.241 362.668 105.455 364.231 96.468 364.231 C 82.908 364.231 72.378 360.758 64.878 353.811 C 57.378 346.864 53.628 337.358 53.628 325.291 L 53.628 257.351 L 75.908 257.351 L 75.908 321.901 C 75.908 330.028 77.545 335.988 80.818 339.781 C 84.085 343.581 89.491 345.481 97.038 345.481 C 104.351 345.481 109.655 343.571 112.948 339.751 C 116.241 335.924 117.888 329.924 117.888 321.751 L 117.888 257.351 ZM 253.467 309.061 C 253.467 326.421 248.527 339.714 238.647 348.941 C 228.767 358.174 214.5 362.791 195.847 362.791 L 165.987 362.791 L 165.987 257.351 L 199.087 257.351 C 216.3 257.351 229.667 261.894 239.187 270.981 C 248.707 280.068 253.467 292.761 253.467 309.061 Z M 230.247 309.641 C 230.247 286.994 220.247 275.671 200.247 275.671 L 188.347 275.671 L 188.347 344.331 L 197.937 344.331 C 219.477 344.331 230.247 332.768 230.247 309.641 ZM 336.037 344.331 L 336.037 362.791 L 275.317 362.791 L 275.317 257.351 L 336.037 257.351 L 336.037 275.671 L 297.677 275.671 L 297.677 298.821 L 333.377 298.821 L 333.377 317.141 L 297.677 317.141 L 297.677 344.331 L 336.037 344.331 Z" style="fill: rgb(255, 255, 255); white-space: pre;"/>
</svg>