<?xml version="1.0" standalone="no"?>
<!DOCTYPE svg PUBLIC "-//W3C//DTD SVG 20010904//EN"
 "http://www.w3.org/TR/2001/REC-SVG-20010904/DTD/svg10.dtd">
<svg version="1.0" xmlns="http://www.w3.org/2000/svg"
 width="756.000000pt" height="756.000000pt" viewBox="0 0 756.000000 756.000000"
 preserveAspectRatio="xMidYMid meet">
<metadata>
Created by potrace 1.14, written by Peter Selinger 2001-2017
</metadata>
<g transform="translate(0.000000,756.000000) scale(0.100000,-0.100000)"
fill="#000000" stroke="none">
<path d="M105 7276 c-37 -17 -80 -62 -94 -99 -8 -20 -11 -1043 -11 -3403 0
-2843 2 -3380 14 -3407 16 -39 61 -82 99 -96 20 -8 1058 -11 3453 -11 3411 0
3424 0 3444 20 18 18 20 33 20 153 0 117 -2 136 -18 150 -17 16 -267 17 -3343
19 l-3324 3 -3 3168 -2 3167 3175 0 3175 0 0 -638 0 -639 23 -20 c27 -24 270
-116 295 -111 16 3 17 51 20 814 l2 811 -23 43 c-16 30 -37 51 -67 67 l-43 23
-3381 0 c-2803 -1 -3386 -3 -3411 -14z"/>
<path d="M1152 4248 c-20 -20 -17 -1830 3 -1961 43 -287 167 -478 376 -581
187 -92 436 -125 705 -95 450 50 674 280 724 741 14 133 14 1862 0 1889 -10
18 -24 19 -244 19 -179 0 -236 -3 -244 -13 -8 -9 -12 -307 -14 -962 -4 -1023
-3 -992 -56 -1104 -48 -102 -154 -160 -309 -169 -192 -10 -325 46 -385 163
-54 103 -52 68 -58 1100 -3 528 -9 966 -13 973 -11 17 -467 18 -485 0z"/>
<path d="M3736 4244 c-14 -14 -16 -144 -16 -1284 l0 -1270 25 -16 c36 -24 824
-16 965 10 481 89 709 378 770 979 17 162 8 629 -14 757 -95 547 -319 771
-831 830 -50 5 -269 10 -487 10 -347 0 -399 -2 -412 -16z m867 -418 c127 -41
206 -110 263 -229 80 -169 112 -504 83 -868 -31 -394 -136 -575 -370 -635 -43
-11 -110 -17 -204 -18 l-140 -1 -3 889 -2 888 162 -5 c109 -3 179 -10 211 -21z"/>
<path d="M6156 4244 c-14 -14 -16 -144 -16 -1284 l0 -1269 22 -15 c20 -14 101
-16 681 -16 435 0 665 4 678 10 18 10 19 23 19 195 0 172 -1 185 -19 195 -13
6 -171 10 -445 10 l-426 0 0 370 0 369 350 3 c270 2 352 6 362 16 15 15 19
364 5 379 -5 4 -167 10 -360 13 l-352 5 -3 312 -2 312 390 3 c376 3 390 4 410
23 18 19 110 309 110 349 0 8 -9 20 -19 26 -13 6 -248 10 -695 10 -600 0 -676
-2 -690 -16z"/>
</g>
</svg>
